<?xml version="1.0" encoding="UTF-8"?>
<svg width="256mm" height="256mm" version="1.1" viewBox="0 0 256 256" xmlns="http://www.w3.org/2000/svg" xmlns:cc="http://creativecommons.org/ns#" xmlns:dc="http://purl.org/dc/elements/1.1/" xmlns:rdf="http://www.w3.org/1999/02/22-rdf-syntax-ns#" xmlns:xlink="http://www.w3.org/1999/xlink">
 <defs>
  <linearGradient id="linearGradient1287-8-8" x1="914.94" x2="1368.2" y1="902.32" y2="476.92" gradientTransform="matrix(1.2837 0 0 1.2837 -1306.8 -908.68)" gradientUnits="userSpaceOnUse">
   <stop stop-color="#245595" offset="0"/>
   <stop stop-color="#c8008a" stop-opacity="0" offset="1"/>
  </linearGradient>
  <clipPath id="clip0-6-3-30">
   <rect width="265" height="265" fill="#fff"/>
  </clipPath>
 </defs>
 <metadata>
  <rdf:RDF>
   <cc:Work rdf:about="">
    <dc:format>image/svg+xml</dc:format>
    <dc:type rdf:resource="http://purl.org/dc/dcmitype/StillImage"/>
    <dc:title/>
   </cc:Work>
  </rdf:RDF>
 </metadata>
 <g transform="matrix(.66395 0 0 .6638 106.42 74.809)">
  <rect x="-153.61" y="-106.01" width="372.23" height="372.23" ry="35.777" fill="#fff" fill-rule="evenodd" stroke-width="0" style="paint-order:fill markers stroke"/>
  <path d="m181.95-106.03c-30.349 0.2263-60.722-0.1006-91.08 0-71.101 0.1307-142.21-0.2817-213.31 0.3017-17.277 1.7894-31.479 18.218-31.225 35.191 0.3772 26.862-0.05 53.751 0.05 80.623-0.05 73.948-0.05 147.9 0.2012 221.85-0.166 19.774 19.484 36.445 38.9 34.203 100.3 0 200.61 0.2766 300.91-0.12581 18.018-1.2547 32.924-18.319 32.257-36.289-0.1459-74.511 0.055-149.04-0.05-223.55-0.1207-27.134 0.091-54.288-0.30181-81.409-1.6073-13.594-12.314-25.236-24.864-29.226-3.6899-1.2065-7.6042-1.7628-11.484-1.5792z" fill="url(#linearGradient1287-8-8)" fill-rule="evenodd" stroke="#fffffd" stroke-width="13.229"/>
  <g transform="matrix(.89161 0 0 .89161 -85.635 -38.031)" clip-path="url(#clip0-6-3-30)" fill="#fff5ff">
   <rect width="80" height="25"/>
   <rect transform="rotate(90,25,0)" x="25" width="80" height="25"/>
   <rect transform="rotate(90,265,0)" x="265" width="80" height="25"/>
   <rect transform="rotate(180,265,25)" x="265" y="25" width="80" height="25"/>
   <rect transform="rotate(-90,0,265)" y="265" width="80" height="25"/>
   <rect y="240" width="80" height="25"/>
   <rect transform="rotate(180,265,265)" x="265" y="265" width="80" height="25"/>
   <rect transform="rotate(-90,240,265)" x="240" y="265" width="80" height="25"/>
   <rect x="122" y="171" width="20" height="20"/>
   <rect x="25" y="102" width="215" height="25"/>
   <path d="m177.03 80-17.32 30h28.867l17.321-30zm-56.927 98.602 25.173-43.602h28.868l-32.391 56.102z" clip-rule="evenodd" fill-rule="evenodd"/>
   <path d="m64.586 80 15.517 30h28.146l-15.518-30zm57.414 111-28.966-56h28.146l23.024 44.514z" clip-rule="evenodd" fill-rule="evenodd"/>
  </g>
 </g>
</svg>
