<?xml version="1.0" encoding="UTF-8"?>
<svg width="256mm" height="256mm" version="1.1" viewBox="0 0 256 256" xmlns="http://www.w3.org/2000/svg" xmlns:cc="http://creativecommons.org/ns#" xmlns:dc="http://purl.org/dc/elements/1.1/" xmlns:rdf="http://www.w3.org/1999/02/22-rdf-syntax-ns#" xmlns:xlink="http://www.w3.org/1999/xlink">
 <defs>
  <linearGradient id="linearGradient1538" x1="3809.4" x2="3912.7" y1="1076.6" y2="953.85" gradientTransform="translate(-3742.9 -854.89)" gradientUnits="userSpaceOnUse">
   <stop stop-color="#245595" offset="0"/>
   <stop stop-color="#c8008a" stop-opacity="0" offset="1"/>
  </linearGradient>
  <clipPath id="clip0-6-3-3-44-4-5">
   <rect width="265" height="265" fill="#fff"/>
  </clipPath>
 </defs>
 <metadata>
  <rdf:RDF>
   <cc:Work rdf:about="">
    <dc:format>image/svg+xml</dc:format>
    <dc:type rdf:resource="http://purl.org/dc/dcmitype/StillImage"/>
    <dc:title/>
   </cc:Work>
  </rdf:RDF>
 </metadata>
 <g transform="matrix(1.9661 0 0 1.9661 -83.246 -196.75)">
  <circle cx="107.44" cy="165.17" r="62.921" fill="#fff" stroke="#fffffd" stroke-linejoin="round" stroke-width="4.3622" style="paint-order:fill markers stroke"/>
  <circle cx="107.44" cy="165.17" r="62.921" fill="url(#linearGradient1538)" stroke="#fffffd" stroke-linejoin="round" stroke-width="4.3622" style="paint-order:fill markers stroke"/>
  <g transform="matrix(.24004 0 0 .24004 75.638 133.37)" clip-path="url(#clip0-6-3-3-44-4-5)" fill="#fff5ff">
   <rect width="80" height="25"/>
   <rect transform="rotate(90,25,0)" x="25" width="80" height="25"/>
   <rect transform="rotate(90,265,0)" x="265" width="80" height="25"/>
   <rect transform="rotate(180,265,25)" x="265" y="25" width="80" height="25"/>
   <rect transform="rotate(-90,0,265)" y="265" width="80" height="25"/>
   <rect y="240" width="80" height="25"/>
   <rect transform="rotate(180,265,265)" x="265" y="265" width="80" height="25"/>
   <rect transform="rotate(-90,240,265)" x="240" y="265" width="80" height="25"/>
   <rect x="122" y="171" width="20" height="20"/>
   <rect x="25" y="102" width="215" height="25"/>
   <path d="m177.03 80-17.32 30h28.867l17.321-30zm-56.927 98.602 25.173-43.602h28.868l-32.391 56.102z" clip-rule="evenodd" fill-rule="evenodd"/>
   <path d="m64.586 80 15.517 30h28.146l-15.518-30zm57.414 111-28.966-56h28.146l23.024 44.514z" clip-rule="evenodd" fill-rule="evenodd"/>
  </g>
 </g>
</svg>
