<?xml version="1.0" encoding="UTF-8"?>
<svg width="256mm" height="256mm" version="1.1" viewBox="0 0 256 256" xmlns="http://www.w3.org/2000/svg" xmlns:xlink="http://www.w3.org/1999/xlink">
 <defs>
  <linearGradient id="linearGradient2098" x1="4242.3" x2="5697" y1="4831.9" y2="3372.4" gradientTransform="matrix(.1941 0 0 .1941 -813.18 -692.1)" gradientUnits="userSpaceOnUse">
   <stop stop-color="#245595" offset="0"/>
   <stop stop-color="#c8008a" stop-opacity="0" offset="1"/>
  </linearGradient>
 </defs>
 <rect x="10.24" y="10.24" width="235.52" height="235.52" ry="17.853" fill="#fff"/>
 <rect x="10.24" y="10.24" width="235.52" height="235.52" ry="17.853" fill="url(#linearGradient2098)"/>
 <g fill="#fff">
  <path d="m28.11 0c-15.573 0-28.11 12.537-28.11 28.11v199.78c0 15.573 12.537 28.11 28.11 28.11h199.78c15.573 0 28.11-12.537 28.11-28.11v-199.78c0-15.573-12.537-28.11-28.11-28.11zm0.0263 10.24h199.72c9.9148 0 17.897 7.9819 17.897 17.897v199.72c0 9.9148-7.982 17.897-17.897 17.897h-199.72c-9.9148 0-17.897-7.982-17.897-17.897v-199.72c0-9.9148 7.982-17.897 17.897-17.897z"/>
  <g transform="matrix(.1941 0 0 .1941 -813.18 -693.88)">
   <path d="m4639.1 4062.6h87.148l35.714 67.676h174.1l35.714-67.676h87.148l-34.608 67.676h157.06v79.135h-664.73v-79.135h157.06z"/>
   <path d="m4726.4 4233.1h88.367l34.292 65.946 34.292-65.946h88.367l-89.908 172.9h-65.501z"/>
  </g>
  <g transform="matrix(.1941 0 0 .1941 -813.27 -692.1)">
   <path d="m5181.4 4387.5h77.644v247.98h-248.15v-77.644l170.51-0.2575z"/>
   <path d="m5182.3 4062.9h77.644v-247.98h-248.15v77.645l170.51 0.2562v170.07"/>
   <path d="m4687.2 3814.9v77.646l-170.51 0.2553v170.07h-77.644l0.016-247.98h248.14"/>
   <path d="m4439 4387.5h77.646l-0.035 170.07h169.76l-0.082 77.902h-247.28z"/>
  </g>
 </g>
</svg>
