<?xml version="1.0" encoding="UTF-8"?>
<svg width="256mm" height="256mm" version="1.1" viewBox="0 0 256 256" xmlns="http://www.w3.org/2000/svg">
 <g transform="matrix(.1941 0 0 .1941 363.51 -1163.8)" fill="#fff">
  <path d="m-1728 5996c-80.234 0-144.83 64.592-144.83 144.83v1029.3c0 80.234 64.592 144.83 144.83 144.83h1029.3c80.234 0 144.83-64.592 144.83-144.83v-1029.3c0-80.234-64.592-144.83-144.83-144.83zm0.1355 52.756h1029c51.082 0 92.205 41.123 92.205 92.205v1029c0 51.082-41.124 92.205-92.205 92.205h-1029c-51.082 0-92.206-41.124-92.206-92.205v-1029c0-51.082 41.124-92.205 92.206-92.205z"/>
  <g transform="translate(-6062.9 2430.2)">
   <g transform="translate(.4346 -9.1546)">
    <path d="m4639.1 4062.6h87.148l35.714 67.676h174.1l35.714-67.676h87.148l-34.608 67.676h157.06v79.135h-664.73v-79.135h157.06z"/>
    <path d="m4726.4 4233.1h88.367l34.292 65.946 34.292-65.946h88.367l-89.908 172.9h-65.501z"/>
   </g>
   <path d="m5181.4 4387.5h77.644v247.98h-248.15v-77.644l170.51-0.2575z"/>
   <path d="m5182.3 4062.9h77.644v-247.98h-248.15v77.645l170.51 0.2562v170.07"/>
   <path d="m4687.2 3814.9v77.646l-170.51 0.2553v170.07h-77.644l0.016-247.98h248.14"/>
   <path d="m4439 4387.5h77.646l-0.035 170.07h169.76l-0.082 77.902h-247.28z"/>
  </g>
 </g>
</svg>
