<?xml version="1.0" encoding="UTF-8"?>
<svg width="256mm" height="168.9mm" version="1.1" viewBox="0 0 256 168.89" xmlns="http://www.w3.org/2000/svg" xmlns:xlink="http://www.w3.org/1999/xlink">
 <defs>
  <linearGradient id="linearGradient2291" x1="-3115.8" x2="-2343" y1="8288.5" y2="7782.5" gradientTransform="matrix(.30748 0 0 .30748 971.35 -2387.9)" gradientUnits="userSpaceOnUse">
   <stop stop-color="#245595" offset="0"/>
   <stop stop-color="#c8008a" stop-opacity="0" offset="1"/>
  </linearGradient>
 </defs>
 <g>
  <path d="m3.5585 123.21 6.1488-18.883 15.092-15.813 15.515-7.3372-4.2895-21.967 9.2187-27.827 19.096-17.771 30.483-9.1974 19.911 2.6694 24.77 16.667 10.817 16.543 10.986-2.3939 27.43-2.2474 17.856 9.6282 12.792 18.554-0.13328 14.95 1.9 10.483 17.847 10.625 9.8334 15.039 2.3228 18.959-11.639 19.831-21.53 11.271-35.395 1.1796-142.53-0.27379-26.274-15.684z" fill="#fff" stroke="#000" stroke-width=".081355px"/>
  <path d="m3.5585 123.21 6.1488-18.883 15.092-15.813 15.515-7.3372-4.2895-21.967 9.2187-27.827 19.096-17.771 30.483-9.1974 19.911 2.6694 24.77 16.667 10.817 16.543 10.986-2.3939 27.43-2.2474 17.856 9.6282 12.792 18.554-0.13328 14.95 1.9 10.483 17.847 10.625 9.8334 15.039 2.3228 18.959-11.639 19.831-21.53 11.271-35.395 1.1796-142.53-0.27379-26.274-15.684z" fill="url(#linearGradient2291)" stroke="#000" stroke-width=".081355px"/>
  <path d="m95.846 0.0046964c-9.2731 0.13923-18.479 2.348-26.833 6.3971-5.5826 2.6967-10.774 6.2273-15.324 10.461-8.5762 7.9218-14.91 18.229-18.067 29.471-2.9002 10.382-3.147 21.499-0.62181 31.973 0.14126 0.39034 0.21138 0.95662-0.22103 1.1906-0.42906 0.21726-0.9252 0.23605-1.3754 0.39861-9.6676 2.6056-18.409 8.5622-24.41 16.593-4.1361 5.5616-6.994 12.113-8.2436 18.946-0.9776 5.3424-1.0125 10.86-0.027996 16.22 0.80964 4.4716 2.3096 8.8228 4.3966 12.85 3.1666 6.1143 7.7606 11.48 13.306 15.549 6.0247 4.4427 13.161 7.3721 20.581 8.3876 3.085 0.44023 6.2176 0.5217 9.3468 0.40253 2.7588-0.0865 5.52-0.0581 8.28-0.0735 33.055 4e-3 66.11-7e-3 99.165-0.01 20.139-6e-3 40.279-7e-3 60.418-0.0172 6.3848-0.31087 12.783-1.9559 18.394-5.0933 7.4241-4.0912 13.58-10.497 17.252-18.135 2.3247-4.8129 3.7157-10.104 4.0495-15.439 0.43908-6.654-0.81481-13.408-3.57-19.496-2.433-5.4013-6.0502-10.285-10.534-14.167-4.877-4.23-10.787-7.3225-17.045-8.8664-0.33331-0.05013-0.72883-0.17258-0.80643-0.55124-0.10422-0.50227 0.14489-0.9889 0.1954-1.4849 1.282-6.84 0.98063-13.951-0.80976-20.688-1.0052-3.7806-2.4761-7.4441-4.4152-10.861-2.7361-4.8293-6.3586-9.2091-10.602-12.79-4.6404-3.9209-10.015-6.942-15.814-8.7945-6.9717-2.2487-14.514-2.8467-21.748-1.6921-5.5827 0.88794-10.99 2.7949-15.895 5.5974-0.48592 0.19733-0.93302-0.26024-1.058-0.69704-5.7756-11.843-15.368-21.788-26.984-28.024-4.8132-2.576-9.9599-4.5152-15.266-5.7939-5.1244-1.2331-10.427-1.8268-15.712-1.7623zm0.48392 8.3729c9.2374 0.063125 18.513 2.2329 26.642 6.6701 10.266 5.5681 18.697 14.463 23.669 25.033 0.70877 1.4153 1.348 2.9051 2.4094 4.1003 1.5448 1.5994 4.0784 2.254 6.1565 1.3733 1.6348-0.67845 3.0971-1.6976 4.6696-2.5007 1.1877-0.60473 2.4089-1.143 3.6377-1.6591 5.3193-2.1686 11.123-3.1925 16.863-2.7987 7.9431 0.48376 15.75 3.4344 21.911 8.4936 7.2057 5.8609 12.246 14.374 13.739 23.557 0.90513 5.4472 0.56991 11.067-0.75519 16.417-0.34777 1.6333-0.40582 3.4533 0.46104 4.9421 0.84094 1.5349 2.4166 2.6056 4.1269 2.9248 2.9106 0.77117 5.8884 1.4242 8.595 2.7891 7.5183 3.4816 13.72 9.8396 16.773 17.567 3.0859 7.7025 3.1728 16.592 0.0769 24.306-3.2903 8.2526-10.018 15.133-18.317 18.372-4.3024 1.7135-8.9547 2.489-13.579 2.407-30.364 0.0553-60.728 0.056-91.092 0.0824-26.011 0.0178-52.021 0.0351-78.032 0.0466-8.3992-0.30765-16.729-3.4173-23.09-8.948-7.0411-6.0909-11.706-14.905-12.61-24.186-0.86338-8.7886 1.4658-17.89 6.6147-25.084 4.6055-6.4441 11.284-11.425 18.855-13.803 1.9271-0.633 3.9112-1.0663 5.8746-1.5642 2.0655-0.67728 3.8031-2.5108 4.066-4.7107 0.13536-1.0287-0.07653-2.1463-0.29283-3.1752-0.43362-1.9827-0.92167-3.9816-1.2291-5.9995-1.5276-9.4002-0.79019-19.207 2.4442-28.184 4.6671-13.014 14.417-24.149 26.773-30.378 7.6109-3.861 16.108-5.9516 24.64-6.0904z" fill="#fff" stroke-width="0" style="paint-order:fill markers stroke"/>
  <g transform="matrix(.091785 0 0 .091785 -317.11 -285.91)" fill="#fff">
   <g transform="translate(.4346 -9.1546)">
    <path d="m4639.1 4062.6h87.148l35.714 67.676h174.1l35.714-67.676h87.148l-34.608 67.676h157.06v79.135h-664.73v-79.135h157.06z"/>
    <path d="m4726.4 4233.1h88.367l34.292 65.946 34.292-65.946h88.367l-89.908 172.9h-65.501z"/>
   </g>
   <path d="m5181.4 4387.5h77.644v247.98h-248.15v-77.644l170.51-0.2575z"/>
   <path d="m5182.3 4062.9h77.644v-247.98h-248.15v77.645l170.51 0.2562v170.07"/>
   <path d="m4687.2 3814.9v77.646l-170.51 0.2553v170.07h-77.644l0.016-247.98h248.14"/>
   <path d="m4439 4387.5h77.646l-0.035 170.07h169.76l-0.082 77.902h-247.28z"/>
  </g>
 </g>
</svg>
